<svg width="1152" height="78" viewBox="0 0 1152 78" fill="none" xmlns="http://www.w3.org/2000/svg">
<path fill-rule="evenodd" clip-rule="evenodd" d="M0 24.1987L28.562 20.2134C53.9504 16.2281 111.074 9.25389 165.025 14.2355C218.975 20.2134 272.926 38.1472 330.05 45.1214C384 53.092 437.95 49.1067 495.074 51.0993C549.025 53.092 602.975 60.0662 656.926 63.0552C714.05 67.0405 768 67.0405 821.95 53.092C879.074 38.1472 933.025 9.25389 986.975 2.27965C1040.93 -5.69091 1098.05 9.25389 1123.44 16.2281L1152 24.1987V78H1123.44C1098.05 78 1040.93 78 986.975 78C933.025 78 879.074 78 821.95 78C768 78 714.05 78 656.926 78C602.975 78 549.025 78 495.074 78C437.95 78 384 78 330.05 78C272.926 78 218.975 78 165.025 78C111.074 78 53.9504 78 28.562 78H0V24.1987Z" fill="#14008F"/>
</svg>
