<svg width="1152" height="700" viewBox="0 0 1152 700" fill="none" xmlns="http://www.w3.org/2000/svg">
<path fill-rule="evenodd" clip-rule="evenodd" d="M0 700V650C15.36 550 80.82 496.167 112.5 529.5C144.18 562.833 160.32 529.5 192 579.5C223.68 629.5 242.32 529.5 274 529.5C305.68 529.5 352.32 507.167 384 590.5C415.68 673.833 436.82 673.333 468.5 640C500.18 606.667 516.82 723.333 548.5 640C580.18 556.667 607.32 679.5 639 579.5C670.68 479.5 736.32 450.333 768 517C799.68 583.667 780.5 428 856.577 470.5C932.655 513 769.085 255.5 824.043 229.5C879 203.5 760.009 108 826.004 89.0001C892 70 830.164 -4.62938e-05 845.077 -3.11232e-05C914.577 -0.000254277 916.5 -3.35074e-05 1021.5 0.000271668C1105 -3.54148e-05 1056 -3.25537e-05 1130 -3.25537e-05H1152V700H1135.68C1120.32 700 1087.68 700 1056 700C1024.32 700 991.68 700 960 700C928.32 700 895.68 700 864 700C832.32 700 799.68 700 768 700C736.32 700 703.68 700 672 700C640.32 700 607.68 700 576 700C544.32 700 511.68 700 480 700C448.32 700 415.68 700 384 700C352.32 700 319.68 700 288 700C256.32 700 223.68 700 192 700C160.32 700 127.68 700 96 700C64.32 700 31.68 700 16.32 700H0Z" fill="#14008F"/>
</svg>
