<svg width="25" height="24" viewBox="0 0 25 24" fill="none" xmlns="http://www.w3.org/2000/svg">
<path d="M23.3446 16.1351L17.6913 13.6019L17.6757 13.5947C17.3822 13.4692 17.0621 13.4188 16.7442 13.4481C16.4264 13.4775 16.1209 13.5856 15.8553 13.7627C15.8241 13.7833 15.794 13.8058 15.7653 13.8299L12.8445 16.3199C10.9941 15.4211 9.08367 13.5251 8.18487 11.6987L10.6785 8.73344C10.7025 8.70344 10.7253 8.67344 10.7469 8.64104C10.9202 8.3762 11.0254 8.07262 11.053 7.75732C11.0806 7.44202 11.0299 7.12478 10.9053 6.83382V6.81942L8.36487 1.15657C8.20015 0.776482 7.91693 0.45986 7.55749 0.253966C7.19804 0.0480719 6.78164 -0.0360501 6.37045 0.0141573C4.74441 0.228127 3.25185 1.02669 2.17154 2.26069C1.09124 3.4947 0.497071 5.07976 0.500011 6.71982C0.500011 16.2479 8.25207 24 17.7801 24C19.4202 24.0029 21.0052 23.4088 22.2393 22.3285C23.4733 21.2481 24.2718 19.7556 24.4858 18.1295C24.5361 17.7185 24.4521 17.3022 24.2465 16.9428C24.0408 16.5833 23.7244 16.3 23.3446 16.1351ZM17.7801 22.08C13.7077 22.0755 9.80342 20.4558 6.92381 17.5762C4.04419 14.6966 2.42447 10.7922 2.42002 6.71982C2.41551 5.548 2.83769 4.41459 3.60772 3.53128C4.37774 2.64796 5.44297 2.07514 6.60445 1.91978C6.60398 1.92456 6.60398 1.92939 6.60445 1.93418L9.12447 7.57423L6.64405 10.5431C6.61888 10.572 6.59601 10.6029 6.57565 10.6355C6.39507 10.9126 6.28913 11.2316 6.26811 11.5617C6.24709 11.8918 6.31169 12.2217 6.45565 12.5195C7.54286 14.7431 9.78328 16.9667 12.0309 18.0527C12.3309 18.1954 12.6627 18.2577 12.994 18.2337C13.3252 18.2098 13.6446 18.1003 13.9209 17.9159C13.9517 17.8952 13.9814 17.8727 14.0097 17.8487L16.9269 15.3599L22.567 17.8859H22.5802C22.4267 19.0491 21.8547 20.1164 20.9713 20.8884C20.0878 21.6603 18.9533 22.0839 17.7801 22.08Z" fill="#1EA2EE"/>
</svg>
