<svg width="36" height="36" viewBox="0 0 36 36" fill="none" xmlns="http://www.w3.org/2000/svg">
<g clip-path="url(#clip0_36_30)">
<path d="M32.7273 26.1818V11.4545H9.81818V26.1818H32.7273ZM32.7273 3.27273C33.5953 3.27273 34.4277 3.61753 35.0414 4.23129C35.6552 4.84504 36 5.67747 36 6.54545V26.1818C36 27.0498 35.6552 27.8822 35.0414 28.496C34.4277 29.1097 33.5953 29.4545 32.7273 29.4545H9.81818C8.9502 29.4545 8.11777 29.1097 7.50401 28.496C6.89026 27.8822 6.54545 27.0498 6.54545 26.1818V6.54545C6.54545 5.67747 6.89026 4.84504 7.50401 4.23129C8.11777 3.61753 8.9502 3.27273 9.81818 3.27273H11.4545V0H14.7273V3.27273H27.8182V0H31.0909V3.27273H32.7273ZM3.27273 32.7273H26.1818V36H3.27273C2.40475 36 1.57232 35.6552 0.95856 35.0414C0.344804 34.4277 0 33.5953 0 32.7273V13.0909H3.27273V32.7273ZM29.4545 22.9091H22.9091V16.3636H29.4545V22.9091Z" fill="#1EA2EE"/>
</g>
<defs>
<clipPath id="clip0_36_30">
<rect width="36" height="36" fill="white"/>
</clipPath>
</defs>
</svg>
