<svg width="202" height="80" viewBox="0 0 202 80" fill="none" xmlns="http://www.w3.org/2000/svg">
<path d="M44.0493 64.2232C44.1211 56.8803 42.2595 50.9091 39.8915 50.8859C37.5233 50.8629 35.5454 56.7966 35.4738 64.1394C35.4019 71.4822 37.2635 77.4536 39.6315 77.4766C41.9997 77.4998 43.9776 71.5661 44.0493 64.2232Z" fill="#1EA2EE"/>
<path d="M30.3152 62.5555C34.3458 56.4173 36.0083 50.3875 34.0288 49.0877C32.0491 47.7878 27.177 51.7101 23.1466 57.8483C19.116 63.9866 17.4534 70.0162 19.433 71.3162C21.4126 72.616 26.2846 68.6938 30.3152 62.5555Z" fill="#1EA2EE"/>
<path d="M19.6467 53.7488C26.3561 50.7645 31.0149 46.591 30.0523 44.4272C29.0899 42.2634 22.8707 42.9286 16.1613 45.9131C9.45189 48.8974 4.79312 53.0709 5.7556 55.2347C6.71807 57.3986 12.9373 56.7333 19.6467 53.7488Z" fill="#1EA2EE"/>
<path d="M29.247 38.3592C29.6073 36.0186 24.0158 33.2155 16.7582 32.0984C9.50044 30.9813 3.32485 31.9733 2.9646 34.3139C2.60434 36.6546 8.19583 39.4574 15.4536 40.5746C22.7112 41.6917 28.8869 40.6997 29.247 38.3592Z" fill="#1EA2EE"/>
<path d="M31.8528 32.7832C33.4211 31.0088 30.232 25.6282 24.7298 20.7653C19.2275 15.9024 13.4957 13.3988 11.9274 15.1733C10.3591 16.9478 13.5483 22.3285 19.0506 27.1914C24.5528 32.0542 30.2847 34.5578 31.8528 32.7832Z" fill="#1EA2EE"/>
<path d="M37.0422 29.5245C39.321 28.8797 39.5474 22.629 37.548 15.5633C35.5486 8.49752 32.0805 3.29233 29.8018 3.93715C27.523 4.58197 27.2966 10.8326 29.296 17.8984C31.2954 24.964 34.7635 30.1693 37.0422 29.5245Z" fill="#1EA2EE"/>
<path d="M51.1334 18.1182C53.2718 11.0933 53.1688 4.83939 50.9032 4.14977C48.6376 3.46014 45.0675 8.59592 42.9291 15.6209C40.7909 22.6458 40.8939 28.8997 43.1595 29.5893C45.4251 30.2789 48.9952 25.1432 51.1334 18.1182Z" fill="#1EA2EE"/>
<path d="M61.2022 27.6104C66.7986 22.856 70.0923 17.5387 68.5589 15.734C67.0256 13.9292 61.2459 16.3203 55.6498 21.0746C50.0534 25.829 46.7598 31.1462 48.2931 32.951C49.8264 34.7558 55.6061 32.3648 61.2022 27.6104Z" fill="#1EA2EE"/>
<path d="M64.5315 41.043C71.8099 40.0693 77.4555 37.3771 77.1414 35.0298C76.8275 32.6826 70.6726 31.5691 63.3942 32.5427C56.116 33.5165 50.4702 36.2086 50.7843 38.556C51.0984 40.9032 57.2531 42.0168 64.5315 41.043Z" fill="#1EA2EE"/>
<path d="M73.9206 55.9056C74.9256 53.7613 70.3501 49.4968 63.7008 46.3806C57.0517 43.2645 50.8467 42.4768 49.8417 44.6211C48.8368 46.7656 53.4123 51.0301 60.0616 54.1462C66.7107 57.2622 72.9157 58.0501 73.9206 55.9056Z" fill="#1EA2EE"/>
<path d="M59.9343 71.7278C61.9391 70.4674 60.3957 64.4059 56.4871 58.1894C52.5784 51.973 47.7845 47.9555 45.7797 49.216C43.7749 50.4765 45.3183 56.5379 49.2269 62.7544C53.1355 68.9709 57.9295 72.9885 59.9343 71.7278Z" fill="#1EA2EE"/>
<path d="M92.093 34C91.9397 34 91.8093 33.9463 91.702 33.839C91.5947 33.7317 91.541 33.6013 91.541 33.448V18.222C91.541 18.0687 91.5947 17.9383 91.702 17.831C91.8093 17.7237 91.9397 17.67 92.093 17.67H94.14C94.3087 17.67 94.439 17.7237 94.531 17.831C94.6383 17.9383 94.692 18.0687 94.692 18.222V23.466C95.106 22.9753 95.612 22.5767 96.21 22.27C96.808 21.9633 97.544 21.81 98.418 21.81C99.3533 21.81 100.166 22.0247 100.856 22.454C101.561 22.868 102.106 23.4583 102.489 24.225C102.872 24.9917 103.064 25.9117 103.064 26.985V33.448C103.064 33.6013 103.01 33.7317 102.903 33.839C102.796 33.9463 102.665 34 102.512 34H100.442C100.289 34 100.158 33.9463 100.051 33.839C99.9437 33.7317 99.89 33.6013 99.89 33.448V27.123C99.89 26.2337 99.6677 25.536 99.223 25.03C98.7937 24.524 98.165 24.271 97.337 24.271C96.5397 24.271 95.8957 24.524 95.405 25.03C94.9297 25.536 94.692 26.2337 94.692 27.123V33.448C94.692 33.6013 94.6383 33.7317 94.531 33.839C94.439 33.9463 94.3087 34 94.14 34H92.093ZM109.456 34.23C108.659 34.23 107.938 34.0767 107.294 33.77C106.65 33.448 106.136 33.0263 105.753 32.505C105.385 31.9683 105.201 31.3703 105.201 30.711C105.201 29.6377 105.63 28.7867 106.489 28.158C107.363 27.514 108.513 27.0847 109.939 26.87L113.09 26.41V25.927C113.09 25.283 112.929 24.7847 112.607 24.432C112.285 24.0793 111.733 23.903 110.951 23.903C110.399 23.903 109.947 24.018 109.594 24.248C109.257 24.4627 109.004 24.754 108.835 25.122C108.712 25.3213 108.536 25.421 108.306 25.421H106.489C106.32 25.421 106.19 25.375 106.098 25.283C106.021 25.191 105.983 25.0683 105.983 24.915C105.998 24.6697 106.098 24.3707 106.282 24.018C106.466 23.6653 106.757 23.328 107.156 23.006C107.555 22.6687 108.068 22.385 108.697 22.155C109.326 21.925 110.085 21.81 110.974 21.81C111.94 21.81 112.753 21.9327 113.412 22.178C114.087 22.408 114.623 22.7223 115.022 23.121C115.421 23.5197 115.712 23.9873 115.896 24.524C116.08 25.0607 116.172 25.628 116.172 26.226V33.448C116.172 33.6013 116.118 33.7317 116.011 33.839C115.904 33.9463 115.773 34 115.62 34H113.757C113.588 34 113.45 33.9463 113.343 33.839C113.251 33.7317 113.205 33.6013 113.205 33.448V32.551C113.006 32.8423 112.737 33.1183 112.4 33.379C112.063 33.6243 111.649 33.8313 111.158 34C110.683 34.1533 110.115 34.23 109.456 34.23ZM110.238 32.045C110.775 32.045 111.258 31.93 111.687 31.7C112.132 31.47 112.477 31.1173 112.722 30.642C112.983 30.1513 113.113 29.538 113.113 28.802V28.319L110.813 28.687C109.908 28.825 109.234 29.0473 108.789 29.354C108.344 29.6607 108.122 30.0363 108.122 30.481C108.122 30.8183 108.222 31.1097 108.421 31.355C108.636 31.585 108.904 31.7613 109.226 31.884C109.548 31.9913 109.885 32.045 110.238 32.045ZM119.697 38.37C119.544 38.37 119.414 38.3163 119.306 38.209C119.199 38.1017 119.145 37.9713 119.145 37.818V22.592C119.145 22.4387 119.199 22.3083 119.306 22.201C119.414 22.0937 119.544 22.04 119.697 22.04H121.514C121.683 22.04 121.813 22.0937 121.905 22.201C122.013 22.3083 122.066 22.4387 122.066 22.592V23.512C122.434 23.0213 122.917 22.615 123.515 22.293C124.113 21.971 124.857 21.81 125.746 21.81C126.559 21.81 127.264 21.9403 127.862 22.201C128.46 22.4617 128.959 22.8373 129.357 23.328C129.756 23.8033 130.063 24.3707 130.277 25.03C130.492 25.6893 130.615 26.4177 130.645 27.215C130.661 27.4757 130.668 27.744 130.668 28.02C130.668 28.296 130.661 28.572 130.645 28.848C130.63 29.6147 130.515 30.3277 130.3 30.987C130.086 31.631 129.771 32.1983 129.357 32.689C128.959 33.1643 128.46 33.54 127.862 33.816C127.264 34.092 126.559 34.23 125.746 34.23C124.918 34.23 124.213 34.0843 123.63 33.793C123.048 33.4863 122.572 33.0877 122.204 32.597V37.818C122.204 37.9713 122.151 38.1017 122.043 38.209C121.951 38.3163 121.821 38.37 121.652 38.37H119.697ZM124.895 31.769C125.555 31.769 126.068 31.631 126.436 31.355C126.804 31.0637 127.065 30.688 127.218 30.228C127.387 29.768 127.487 29.262 127.517 28.71C127.548 28.25 127.548 27.79 127.517 27.33C127.487 26.778 127.387 26.272 127.218 25.812C127.065 25.352 126.804 24.984 126.436 24.708C126.068 24.4167 125.555 24.271 124.895 24.271C124.267 24.271 123.753 24.4167 123.354 24.708C122.971 24.9993 122.687 25.375 122.503 25.835C122.335 26.2797 122.235 26.7397 122.204 27.215C122.189 27.491 122.181 27.7823 122.181 28.089C122.181 28.3957 122.189 28.6947 122.204 28.986C122.22 29.446 122.327 29.8907 122.526 30.32C122.726 30.734 123.017 31.079 123.4 31.355C123.784 31.631 124.282 31.769 124.895 31.769ZM133.825 38.37C133.672 38.37 133.542 38.3163 133.434 38.209C133.327 38.1017 133.273 37.9713 133.273 37.818V22.592C133.273 22.4387 133.327 22.3083 133.434 22.201C133.542 22.0937 133.672 22.04 133.825 22.04H135.642C135.811 22.04 135.941 22.0937 136.033 22.201C136.141 22.3083 136.194 22.4387 136.194 22.592V23.512C136.562 23.0213 137.045 22.615 137.643 22.293C138.241 21.971 138.985 21.81 139.874 21.81C140.687 21.81 141.392 21.9403 141.99 22.201C142.588 22.4617 143.087 22.8373 143.485 23.328C143.884 23.8033 144.191 24.3707 144.405 25.03C144.62 25.6893 144.743 26.4177 144.773 27.215C144.789 27.4757 144.796 27.744 144.796 28.02C144.796 28.296 144.789 28.572 144.773 28.848C144.758 29.6147 144.643 30.3277 144.428 30.987C144.214 31.631 143.899 32.1983 143.485 32.689C143.087 33.1643 142.588 33.54 141.99 33.816C141.392 34.092 140.687 34.23 139.874 34.23C139.046 34.23 138.341 34.0843 137.758 33.793C137.176 33.4863 136.7 33.0877 136.332 32.597V37.818C136.332 37.9713 136.279 38.1017 136.171 38.209C136.079 38.3163 135.949 38.37 135.78 38.37H133.825ZM139.023 31.769C139.683 31.769 140.196 31.631 140.564 31.355C140.932 31.0637 141.193 30.688 141.346 30.228C141.515 29.768 141.615 29.262 141.645 28.71C141.676 28.25 141.676 27.79 141.645 27.33C141.615 26.778 141.515 26.272 141.346 25.812C141.193 25.352 140.932 24.984 140.564 24.708C140.196 24.4167 139.683 24.271 139.023 24.271C138.395 24.271 137.881 24.4167 137.482 24.708C137.099 24.9993 136.815 25.375 136.631 25.835C136.463 26.2797 136.363 26.7397 136.332 27.215C136.317 27.491 136.309 27.7823 136.309 28.089C136.309 28.3957 136.317 28.6947 136.332 28.986C136.348 29.446 136.455 29.8907 136.654 30.32C136.854 30.734 137.145 31.079 137.528 31.355C137.912 31.631 138.41 31.769 139.023 31.769ZM149.069 38.37C148.946 38.37 148.839 38.324 148.747 38.232C148.655 38.14 148.609 38.0327 148.609 37.91C148.609 37.8487 148.609 37.7873 148.609 37.726C148.624 37.68 148.655 37.6187 148.701 37.542L150.495 33.287L146.079 22.868C146.017 22.7147 145.987 22.6073 145.987 22.546C146.002 22.408 146.056 22.293 146.148 22.201C146.24 22.0937 146.355 22.04 146.493 22.04H148.356C148.54 22.04 148.678 22.086 148.77 22.178C148.862 22.27 148.931 22.3697 148.977 22.477L152.036 29.998L155.187 22.477C155.233 22.3543 155.302 22.2547 155.394 22.178C155.486 22.086 155.624 22.04 155.808 22.04H157.648C157.77 22.04 157.878 22.086 157.97 22.178C158.077 22.27 158.131 22.3773 158.131 22.5C158.131 22.592 158.1 22.7147 158.039 22.868L151.53 37.933C151.468 38.0557 151.392 38.1553 151.3 38.232C151.208 38.324 151.07 38.37 150.886 38.37H149.069Z" fill="#1EA2EE"/>
<path d="M164.148 34.23C163.351 34.23 162.646 34.0997 162.032 33.839C161.434 33.563 160.936 33.1797 160.537 32.689C160.139 32.1983 159.832 31.6233 159.617 30.964C159.403 30.2893 159.28 29.5533 159.249 28.756C159.234 28.48 159.226 28.2347 159.226 28.02C159.226 27.79 159.234 27.537 159.249 27.261C159.28 26.4943 159.395 25.7813 159.594 25.122C159.809 24.4627 160.116 23.8877 160.514 23.397C160.928 22.891 161.434 22.5 162.032 22.224C162.646 21.948 163.351 21.81 164.148 21.81C164.976 21.81 165.674 21.9557 166.241 22.247C166.824 22.523 167.307 22.8833 167.69 23.328V18.222C167.69 18.0687 167.736 17.9383 167.828 17.831C167.936 17.7237 168.074 17.67 168.242 17.67H170.197C170.351 17.67 170.481 17.7237 170.588 17.831C170.696 17.9383 170.749 18.0687 170.749 18.222V33.448C170.749 33.6013 170.696 33.7317 170.588 33.839C170.481 33.9463 170.351 34 170.197 34H168.38C168.212 34 168.074 33.9463 167.966 33.839C167.874 33.7317 167.828 33.6013 167.828 33.448V32.597C167.445 33.0723 166.954 33.4633 166.356 33.77C165.774 34.0767 165.038 34.23 164.148 34.23ZM164.999 31.769C165.643 31.769 166.157 31.6233 166.54 31.332C166.924 31.0407 167.207 30.6727 167.391 30.228C167.575 29.768 167.675 29.3003 167.69 28.825C167.706 28.549 167.713 28.2577 167.713 27.951C167.713 27.629 167.706 27.33 167.69 27.054C167.675 26.594 167.568 26.157 167.368 25.743C167.169 25.3137 166.878 24.961 166.494 24.685C166.111 24.409 165.613 24.271 164.999 24.271C164.355 24.271 163.842 24.4167 163.458 24.708C163.09 24.984 162.822 25.352 162.653 25.812C162.485 26.272 162.385 26.778 162.354 27.33C162.339 27.79 162.339 28.25 162.354 28.71C162.385 29.262 162.485 29.768 162.653 30.228C162.822 30.688 163.09 31.0637 163.458 31.355C163.842 31.631 164.355 31.769 164.999 31.769ZM177.288 34.23C176.491 34.23 175.77 34.0767 175.126 33.77C174.482 33.448 173.968 33.0263 173.585 32.505C173.217 31.9683 173.033 31.3703 173.033 30.711C173.033 29.6377 173.462 28.7867 174.321 28.158C175.195 27.514 176.345 27.0847 177.771 26.87L180.922 26.41V25.927C180.922 25.283 180.761 24.7847 180.439 24.432C180.117 24.0793 179.565 23.903 178.783 23.903C178.231 23.903 177.779 24.018 177.426 24.248C177.089 24.4627 176.836 24.754 176.667 25.122C176.544 25.3213 176.368 25.421 176.138 25.421H174.321C174.152 25.421 174.022 25.375 173.93 25.283C173.853 25.191 173.815 25.0683 173.815 24.915C173.83 24.6697 173.93 24.3707 174.114 24.018C174.298 23.6653 174.589 23.328 174.988 23.006C175.387 22.6687 175.9 22.385 176.529 22.155C177.158 21.925 177.917 21.81 178.806 21.81C179.772 21.81 180.585 21.9327 181.244 22.178C181.919 22.408 182.455 22.7223 182.854 23.121C183.253 23.5197 183.544 23.9873 183.728 24.524C183.912 25.0607 184.004 25.628 184.004 26.226V33.448C184.004 33.6013 183.95 33.7317 183.843 33.839C183.736 33.9463 183.605 34 183.452 34H181.589C181.42 34 181.282 33.9463 181.175 33.839C181.083 33.7317 181.037 33.6013 181.037 33.448V32.551C180.838 32.8423 180.569 33.1183 180.232 33.379C179.895 33.6243 179.481 33.8313 178.99 34C178.515 34.1533 177.947 34.23 177.288 34.23ZM178.07 32.045C178.607 32.045 179.09 31.93 179.519 31.7C179.964 31.47 180.309 31.1173 180.554 30.642C180.815 30.1513 180.945 29.538 180.945 28.802V28.319L178.645 28.687C177.74 28.825 177.066 29.0473 176.621 29.354C176.176 29.6607 175.954 30.0363 175.954 30.481C175.954 30.8183 176.054 31.1097 176.253 31.355C176.468 31.585 176.736 31.7613 177.058 31.884C177.38 31.9913 177.717 32.045 178.07 32.045ZM188.802 38.37C188.679 38.37 188.572 38.324 188.48 38.232C188.388 38.14 188.342 38.0327 188.342 37.91C188.342 37.8487 188.342 37.7873 188.342 37.726C188.357 37.68 188.388 37.6187 188.434 37.542L190.228 33.287L185.812 22.868C185.751 22.7147 185.72 22.6073 185.72 22.546C185.735 22.408 185.789 22.293 185.881 22.201C185.973 22.0937 186.088 22.04 186.226 22.04H188.089C188.273 22.04 188.411 22.086 188.503 22.178C188.595 22.27 188.664 22.3697 188.71 22.477L191.769 29.998L194.92 22.477C194.966 22.3543 195.035 22.2547 195.127 22.178C195.219 22.086 195.357 22.04 195.541 22.04H197.381C197.504 22.04 197.611 22.086 197.703 22.178C197.81 22.27 197.864 22.3773 197.864 22.5C197.864 22.592 197.833 22.7147 197.772 22.868L191.263 37.933C191.202 38.0557 191.125 38.1553 191.033 38.232C190.941 38.324 190.803 38.37 190.619 38.37H188.802ZM92.093 65.37C91.9397 65.37 91.8093 65.3163 91.702 65.209C91.5947 65.1017 91.541 64.9713 91.541 64.818V49.592C91.541 49.4387 91.5947 49.3083 91.702 49.201C91.8093 49.0937 91.9397 49.04 92.093 49.04H93.91C94.0787 49.04 94.209 49.0937 94.301 49.201C94.4083 49.3083 94.462 49.4387 94.462 49.592V50.512C94.83 50.0213 95.313 49.615 95.911 49.293C96.509 48.971 97.2527 48.81 98.142 48.81C98.9547 48.81 99.66 48.9403 100.258 49.201C100.856 49.4617 101.354 49.8373 101.753 50.328C102.152 50.8033 102.458 51.3707 102.673 52.03C102.888 52.6893 103.01 53.4177 103.041 54.215C103.056 54.4757 103.064 54.744 103.064 55.02C103.064 55.296 103.056 55.572 103.041 55.848C103.026 56.6147 102.911 57.3277 102.696 57.987C102.481 58.631 102.167 59.1983 101.753 59.689C101.354 60.1643 100.856 60.54 100.258 60.816C99.66 61.092 98.9547 61.23 98.142 61.23C97.314 61.23 96.6087 61.0843 96.026 60.793C95.4433 60.4863 94.968 60.0877 94.6 59.597V64.818C94.6 64.9713 94.5463 65.1017 94.439 65.209C94.347 65.3163 94.2167 65.37 94.048 65.37H92.093ZM97.291 58.769C97.9503 58.769 98.464 58.631 98.832 58.355C99.2 58.0637 99.4607 57.688 99.614 57.228C99.7827 56.768 99.8823 56.262 99.913 55.71C99.9437 55.25 99.9437 54.79 99.913 54.33C99.8823 53.778 99.7827 53.272 99.614 52.812C99.4607 52.352 99.2 51.984 98.832 51.708C98.464 51.4167 97.9503 51.271 97.291 51.271C96.6623 51.271 96.1487 51.4167 95.75 51.708C95.3667 51.9993 95.083 52.375 94.899 52.835C94.7303 53.2797 94.6307 53.7397 94.6 54.215C94.5847 54.491 94.577 54.7823 94.577 55.089C94.577 55.3957 94.5847 55.6947 94.6 55.986C94.6153 56.446 94.7227 56.8907 94.922 57.32C95.1213 57.734 95.4127 58.079 95.796 58.355C96.1793 58.631 96.6777 58.769 97.291 58.769ZM109.119 61.23C108.322 61.23 107.601 61.0767 106.957 60.77C106.313 60.448 105.799 60.0263 105.416 59.505C105.048 58.9683 104.864 58.3703 104.864 57.711C104.864 56.6377 105.293 55.7867 106.152 55.158C107.026 54.514 108.176 54.0847 109.602 53.87L112.753 53.41V52.927C112.753 52.283 112.592 51.7847 112.27 51.432C111.948 51.0793 111.396 50.903 110.614 50.903C110.062 50.903 109.61 51.018 109.257 51.248C108.92 51.4627 108.667 51.754 108.498 52.122C108.375 52.3213 108.199 52.421 107.969 52.421H106.152C105.983 52.421 105.853 52.375 105.761 52.283C105.684 52.191 105.646 52.0683 105.646 51.915C105.661 51.6697 105.761 51.3707 105.945 51.018C106.129 50.6653 106.42 50.328 106.819 50.006C107.218 49.6687 107.731 49.385 108.36 49.155C108.989 48.925 109.748 48.81 110.637 48.81C111.603 48.81 112.416 48.9327 113.075 49.178C113.75 49.408 114.286 49.7223 114.685 50.121C115.084 50.5197 115.375 50.9873 115.559 51.524C115.743 52.0607 115.835 52.628 115.835 53.226V60.448C115.835 60.6013 115.781 60.7317 115.674 60.839C115.567 60.9463 115.436 61 115.283 61H113.42C113.251 61 113.113 60.9463 113.006 60.839C112.914 60.7317 112.868 60.6013 112.868 60.448V59.551C112.669 59.8423 112.4 60.1183 112.063 60.379C111.726 60.6243 111.312 60.8313 110.821 61C110.346 61.1533 109.778 61.23 109.119 61.23ZM109.901 59.045C110.438 59.045 110.921 58.93 111.35 58.7C111.795 58.47 112.14 58.1173 112.385 57.642C112.646 57.1513 112.776 56.538 112.776 55.802V55.319L110.476 55.687C109.571 55.825 108.897 56.0473 108.452 56.354C108.007 56.6607 107.785 57.0363 107.785 57.481C107.785 57.8183 107.885 58.1097 108.084 58.355C108.299 58.585 108.567 58.7613 108.889 58.884C109.211 58.9913 109.548 59.045 109.901 59.045ZM119.338 61C119.184 61 119.054 60.9463 118.947 60.839C118.839 60.7317 118.786 60.6013 118.786 60.448V49.615C118.786 49.4463 118.839 49.3083 118.947 49.201C119.054 49.0937 119.184 49.04 119.338 49.04H121.201C121.354 49.04 121.484 49.0937 121.592 49.201C121.714 49.3083 121.776 49.4463 121.776 49.615V50.558C122.128 50.0673 122.581 49.6917 123.133 49.431C123.7 49.1703 124.352 49.04 125.088 49.04H126.031C126.199 49.04 126.33 49.0937 126.422 49.201C126.529 49.3083 126.583 49.4387 126.583 49.592V51.248C126.583 51.4013 126.529 51.5317 126.422 51.639C126.33 51.7463 126.199 51.8 126.031 51.8H124.237C123.501 51.8 122.926 52.007 122.512 52.421C122.113 52.835 121.914 53.4023 121.914 54.123V60.448C121.914 60.6013 121.86 60.7317 121.753 60.839C121.645 60.9463 121.507 61 121.339 61H119.338ZM132.636 61.23C131.838 61.23 131.133 61.0997 130.52 60.839C129.922 60.563 129.423 60.1797 129.025 59.689C128.626 59.1983 128.319 58.6233 128.105 57.964C127.89 57.2893 127.767 56.5533 127.737 55.756C127.721 55.48 127.714 55.2347 127.714 55.02C127.714 54.79 127.721 54.537 127.737 54.261C127.767 53.4943 127.882 52.7813 128.082 52.122C128.296 51.4627 128.603 50.8877 129.002 50.397C129.416 49.891 129.922 49.5 130.52 49.224C131.133 48.948 131.838 48.81 132.636 48.81C133.464 48.81 134.161 48.9557 134.729 49.247C135.311 49.523 135.794 49.8833 136.178 50.328V45.222C136.178 45.0687 136.224 44.9383 136.316 44.831C136.423 44.7237 136.561 44.67 136.73 44.67H138.685C138.838 44.67 138.968 44.7237 139.076 44.831C139.183 44.9383 139.237 45.0687 139.237 45.222V60.448C139.237 60.6013 139.183 60.7317 139.076 60.839C138.968 60.9463 138.838 61 138.685 61H136.868C136.699 61 136.561 60.9463 136.454 60.839C136.362 60.7317 136.316 60.6013 136.316 60.448V59.597C135.932 60.0723 135.442 60.4633 134.844 60.77C134.261 61.0767 133.525 61.23 132.636 61.23ZM133.487 58.769C134.131 58.769 134.644 58.6233 135.028 58.332C135.411 58.0407 135.695 57.6727 135.879 57.228C136.063 56.768 136.162 56.3003 136.178 55.825C136.193 55.549 136.201 55.2577 136.201 54.951C136.201 54.629 136.193 54.33 136.178 54.054C136.162 53.594 136.055 53.157 135.856 52.743C135.656 52.3137 135.365 51.961 134.982 51.685C134.598 51.409 134.1 51.271 133.487 51.271C132.843 51.271 132.329 51.4167 131.946 51.708C131.578 51.984 131.309 52.352 131.141 52.812C130.972 53.272 130.872 53.778 130.842 54.33C130.826 54.79 130.826 55.25 130.842 55.71C130.872 56.262 130.972 56.768 131.141 57.228C131.309 57.688 131.578 58.0637 131.946 58.355C132.329 58.631 132.843 58.769 133.487 58.769ZM146.741 61.23C145.806 61.23 144.993 61.023 144.303 60.609C143.629 60.1797 143.107 59.5817 142.739 58.815C142.371 58.033 142.187 57.113 142.187 56.055V49.592C142.187 49.4387 142.241 49.3083 142.348 49.201C142.456 49.0937 142.586 49.04 142.739 49.04H144.763C144.932 49.04 145.062 49.0937 145.154 49.201C145.262 49.3083 145.315 49.4387 145.315 49.592V55.917C145.315 57.8183 146.151 58.769 147.822 58.769C148.62 58.769 149.248 58.516 149.708 58.01C150.184 57.504 150.421 56.8063 150.421 55.917V49.592C150.421 49.4387 150.475 49.3083 150.582 49.201C150.69 49.0937 150.82 49.04 150.973 49.04H152.997C153.151 49.04 153.281 49.0937 153.388 49.201C153.496 49.3083 153.549 49.4387 153.549 49.592V60.448C153.549 60.6013 153.496 60.7317 153.388 60.839C153.281 60.9463 153.151 61 152.997 61H151.134C150.966 61 150.828 60.9463 150.72 60.839C150.628 60.7317 150.582 60.6013 150.582 60.448V59.505C150.168 60.0417 149.655 60.4633 149.041 60.77C148.428 61.0767 147.661 61.23 146.741 61.23ZM163.211 61.23C162.322 61.23 161.578 61.0767 160.98 60.77C160.398 60.4633 159.915 60.0723 159.531 59.597V60.448C159.531 60.6013 159.478 60.7317 159.37 60.839C159.278 60.9463 159.148 61 158.979 61H157.162C157.009 61 156.879 60.9463 156.771 60.839C156.664 60.7317 156.61 60.6013 156.61 60.448V45.222C156.61 45.0687 156.664 44.9383 156.771 44.831C156.879 44.7237 157.009 44.67 157.162 44.67H159.117C159.286 44.67 159.416 44.7237 159.508 44.831C159.616 44.9383 159.669 45.0687 159.669 45.222V50.328C160.053 49.8833 160.528 49.523 161.095 49.247C161.678 48.9557 162.383 48.81 163.211 48.81C164.024 48.81 164.729 48.948 165.327 49.224C165.925 49.5 166.424 49.891 166.822 50.397C167.236 50.8877 167.551 51.4627 167.765 52.122C167.98 52.7813 168.095 53.4943 168.11 54.261C168.126 54.537 168.133 54.79 168.133 55.02C168.133 55.2347 168.126 55.48 168.11 55.756C168.08 56.5533 167.957 57.2893 167.742 57.964C167.528 58.6233 167.221 59.1983 166.822 59.689C166.424 60.1797 165.925 60.563 165.327 60.839C164.729 61.0997 164.024 61.23 163.211 61.23ZM162.36 58.769C163.02 58.769 163.533 58.631 163.901 58.355C164.269 58.0637 164.53 57.688 164.683 57.228C164.852 56.768 164.952 56.262 164.982 55.71C165.013 55.25 165.013 54.79 164.982 54.33C164.952 53.778 164.852 53.272 164.683 52.812C164.53 52.352 164.269 51.984 163.901 51.708C163.533 51.4167 163.02 51.271 162.36 51.271C161.747 51.271 161.249 51.409 160.865 51.685C160.482 51.961 160.191 52.3137 159.991 52.743C159.792 53.157 159.685 53.594 159.669 54.054C159.654 54.33 159.646 54.629 159.646 54.951C159.646 55.2577 159.654 55.549 159.669 55.825C159.7 56.3003 159.8 56.768 159.968 57.228C160.152 57.6727 160.436 58.0407 160.819 58.332C161.218 58.6233 161.732 58.769 162.36 58.769ZM171.245 61C171.091 61 170.961 60.9463 170.854 60.839C170.746 60.7317 170.693 60.6013 170.693 60.448V49.592C170.693 49.4387 170.746 49.3083 170.854 49.201C170.961 49.0937 171.091 49.04 171.245 49.04H173.154C173.322 49.04 173.453 49.0937 173.545 49.201C173.652 49.3083 173.706 49.4387 173.706 49.592V60.448C173.706 60.6013 173.652 60.7317 173.545 60.839C173.453 60.9463 173.322 61 173.154 61H171.245ZM171.153 47.062C170.984 47.062 170.846 47.016 170.739 46.924C170.647 46.8167 170.601 46.6787 170.601 46.51V44.854C170.601 44.7007 170.647 44.5703 170.739 44.463C170.846 44.3557 170.984 44.302 171.153 44.302H173.246C173.414 44.302 173.552 44.3557 173.66 44.463C173.767 44.5703 173.821 44.7007 173.821 44.854V46.51C173.821 46.6787 173.767 46.8167 173.66 46.924C173.552 47.016 173.414 47.062 173.246 47.062H171.153ZM182 61.23C180.896 61.23 179.922 61.023 179.079 60.609C178.251 60.195 177.599 59.597 177.124 58.815C176.664 58.0177 176.411 57.0593 176.365 55.94C176.349 55.71 176.342 55.411 176.342 55.043C176.342 54.6597 176.349 54.3453 176.365 54.1C176.411 52.9807 176.664 52.03 177.124 51.248C177.599 50.4507 178.251 49.845 179.079 49.431C179.922 49.017 180.896 48.81 182 48.81C182.981 48.81 183.817 48.948 184.507 49.224C185.197 49.5 185.764 49.845 186.209 50.259C186.653 50.673 186.983 51.11 187.198 51.57C187.428 52.0147 187.55 52.421 187.566 52.789C187.581 52.9577 187.527 53.0957 187.405 53.203C187.297 53.295 187.167 53.341 187.014 53.341H184.99C184.836 53.341 184.714 53.3027 184.622 53.226C184.545 53.1493 184.468 53.0343 184.392 52.881C184.162 52.2677 183.855 51.8383 183.472 51.593C183.104 51.3323 182.628 51.202 182.046 51.202C181.279 51.202 180.666 51.4473 180.206 51.938C179.761 52.4133 179.523 53.1723 179.493 54.215C179.462 54.7977 179.462 55.3343 179.493 55.825C179.523 56.883 179.761 57.6497 180.206 58.125C180.666 58.6003 181.279 58.838 182.046 58.838C182.644 58.838 183.127 58.7153 183.495 58.47C183.863 58.2093 184.162 57.7723 184.392 57.159C184.468 57.0057 184.545 56.8907 184.622 56.814C184.714 56.7373 184.836 56.699 184.99 56.699H187.014C187.167 56.699 187.297 56.7527 187.405 56.86C187.527 56.952 187.581 57.0823 187.566 57.251C187.55 57.527 187.474 57.8413 187.336 58.194C187.213 58.5313 187.006 58.884 186.715 59.252C186.439 59.6047 186.086 59.9343 185.657 60.241C185.227 60.5323 184.706 60.77 184.093 60.954C183.495 61.138 182.797 61.23 182 61.23ZM195.116 61.23C193.414 61.23 192.065 60.7393 191.068 59.758C190.072 58.7767 189.535 57.3813 189.458 55.572C189.443 55.4187 189.435 55.227 189.435 54.997C189.435 54.7517 189.443 54.56 189.458 54.422C189.52 53.272 189.78 52.2753 190.24 51.432C190.716 50.5887 191.367 49.9447 192.195 49.5C193.023 49.04 193.997 48.81 195.116 48.81C196.358 48.81 197.401 49.0707 198.244 49.592C199.088 50.098 199.724 50.811 200.153 51.731C200.583 52.6357 200.797 53.686 200.797 54.882V55.365C200.797 55.5183 200.744 55.6487 200.636 55.756C200.529 55.8633 200.391 55.917 200.222 55.917H192.586C192.586 55.917 192.586 55.94 192.586 55.986C192.586 56.032 192.586 56.0703 192.586 56.101C192.602 56.6377 192.701 57.136 192.885 57.596C193.085 58.0407 193.368 58.401 193.736 58.677C194.12 58.953 194.572 59.091 195.093 59.091C195.523 59.091 195.883 59.0297 196.174 58.907C196.466 58.769 196.703 58.6157 196.887 58.447C197.071 58.2783 197.202 58.1403 197.278 58.033C197.416 57.849 197.524 57.7417 197.6 57.711C197.692 57.665 197.823 57.642 197.991 57.642H199.969C200.123 57.642 200.245 57.688 200.337 57.78C200.445 57.872 200.491 57.987 200.475 58.125C200.46 58.3703 200.33 58.6693 200.084 59.022C199.854 59.3747 199.517 59.7197 199.072 60.057C198.628 60.3943 198.068 60.678 197.393 60.908C196.734 61.1227 195.975 61.23 195.116 61.23ZM192.586 53.985H197.669V53.916C197.669 53.318 197.57 52.7967 197.37 52.352C197.171 51.9073 196.88 51.5547 196.496 51.294C196.113 51.0333 195.653 50.903 195.116 50.903C194.58 50.903 194.12 51.0333 193.736 51.294C193.353 51.5547 193.062 51.9073 192.862 52.352C192.678 52.7967 192.586 53.318 192.586 53.916V53.985Z" fill="black"/>
</svg>
