<svg width="1152" height="311" viewBox="0 0 1152 311" fill="none" xmlns="http://www.w3.org/2000/svg">
<path fill-rule="evenodd" clip-rule="evenodd" d="M1152 104L1138 104C1125 104 1097 104 1070 127C1042 150 1015 196 987 185C960 173 933 104 905 63.0001C878 23.0001 850 12.0001 823 12.0001C795 12.0001 768 23.0001 741 46.0001C713 69.0001 686 104 658 127C631 150 603 161 576 138C549 115 521 58.0001 494 46.0001C466 35.0001 439 69.0001 411 75.0001C384 81.0001 357 58.0001 329 40.0001C302 23 274 12 247 35C219 58 192 115 165 127C137 138 110 104 82 127C55 150 27 231 14 271L0 311L2.71885e-05 2.13593e-05L14 2.25832e-05C27 2.37197e-05 55 2.61675e-05 82 2.85279e-05C110 3.09758e-05 137 3.33362e-05 165 3.5784e-05C192 3.81444e-05 219 4.05049e-05 247 4.29527e-05C274 4.53131e-05 302 4.7761e-05 329 5.01214e-05C357 5.25692e-05 384 5.49296e-05 411 5.729e-05C439 5.97379e-05 466 6.20983e-05 494 6.45461e-05C521 6.69065e-05 549 6.93544e-05 576 7.17148e-05C603 7.40752e-05 631 7.6523e-05 658 7.88835e-05C686 8.13313e-05 713 8.36917e-05 741 8.61396e-05C768 8.85e-05 795 9.08604e-05 823 9.33082e-05C850 9.56686e-05 878 9.81165e-05 905 0.000100477C933 0.000102925 960 0.000105285 987 0.000107646C1015 0.000110093 1042 0.000112454 1070 0.000114902C1097 0.000117262 1125 0.00011971 1138 0.000120846L1152 0.00012207L1152 104Z" fill="#14008F"/>
</svg>
